<?xml version="1.0" standalone="no"?>
<!DOCTYPE svg PUBLIC "-//W3C//DTD SVG 20010904//EN"
 "http://www.w3.org/TR/2001/REC-SVG-20010904/DTD/svg10.dtd">
<svg version="1.0" xmlns="http://www.w3.org/2000/svg"
 width="208.000000pt" height="208.000000pt" viewBox="0 0 208.000000 208.000000"
 preserveAspectRatio="xMidYMid meet">
<metadata>
Created by potrace 1.11, written by Peter Selinger 2001-2013
</metadata>
<g transform="translate(0.000000,208.000000) scale(0.100000,-0.100000)"
fill="#000000" stroke="none">
<path d="M420 2061 c-71 -23 -93 -35 -142 -79 -73 -66 -68 8 -68 -1000 l0
-909 23 -21 c56 -53 42 -52 792 -52 l695 0 0 37 c0 38 19 104 33 114 5 3 8 12
7 20 -5 35 1 59 15 59 8 0 15 9 15 20 0 11 5 20 10 20 6 0 10 12 10 26 0 31
21 54 49 54 l21 0 0 865 0 865 -702 -1 c-644 0 -708 -2 -758 -18z m1390 -61
c0 -13 -27 -19 -125 -29 l-80 -8 93 -2 c74 -1 92 -4 92 -16 0 -8 -4 -15 -10
-15 -5 0 -10 -7 -10 -15 0 -10 -11 -15 -32 -16 -18 -1 -157 -5 -308 -8 l-275
-7 210 -2 c256 -3 377 -11 372 -26 -2 -6 -23 -14 -48 -17 l-44 -6 43 -1 c43
-2 52 -11 28 -31 -7 -6 -11 -22 -9 -35 4 -19 0 -24 -27 -30 -18 -3 -322 -6
-677 -6 -666 0 -714 3 -749 41 -16 18 -16 21 0 63 29 77 123 145 229 165 62
13 1327 13 1327 1z m10 -828 c0 -686 -2 -801 -15 -818 -8 -10 -15 -27 -15 -37
0 -20 -19 -57 -37 -72 -7 -5 -17 -28 -22 -50 -6 -25 -9 246 -9 750 0 435 4
804 8 820 7 26 8 22 10 -25 2 -38 5 -47 9 -30 3 14 8 -78 11 -205 l6 -230 2
287 c1 157 5 295 10 305 4 10 9 -54 12 -142 l6 -160 2 203 c1 126 6 202 12
202 7 0 10 -273 10 -798z"/>
</g>
</svg>
